<?xml version="1.0" encoding="utf-8"?>
<!-- Generator: Adobe Illustrator 27.5.0, SVG Export Plug-In . SVG Version: 6.00 Build 0)  -->
<svg version="1.1" xmlns="http://www.w3.org/2000/svg" xmlns:xlink="http://www.w3.org/1999/xlink" x="0px" y="0px"
	 viewBox="0 0 3710 3710" style="enable-background:new 0 0 3710 3710;" xml:space="preserve">
<g id="Background">
	<g>
		<g>
			<rect style="fill:#FFFFFF;" width="3710" height="3710"/>
		</g>
	</g>
</g>
<g id="Illustration">
	<g>
		<linearGradient id="SVGID_1_" gradientUnits="userSpaceOnUse" x1="3606.1118" y1="4077.9951" x2="1121.4712" y2="992.2272">
			<stop  offset="0" style="stop-color:#DAE3FE"/>
			<stop  offset="1" style="stop-color:#E9EFFD"/>
		</linearGradient>
		<path style="fill:url(#SVGID_1_);" d="M2925.375,2859.139c-57.225,59.976-111.37,98.654-154.15,129.213
			c-502.864,359.208-1097.885,254.5-1224.344,228.93c-186.74-37.759-547.704-110.748-808.675-416.281
			C343.38,2338.754,404.86,1610.498,711.114,1129.766c56.019-87.934,351.926-575.988,953.356-654.257
			c363.979-47.367,788.261,48.167,1095.515,304.441C3404.938,1317.894,3359.024,2404.634,2925.375,2859.139z"/>
		<g>
			<g>
				<path style="fill:#BDD0FB;" d="M539.165,847.864c3.719-19.645,31.362-21.249,37.246-2.141
					c56.881,184.735,221.203,664.472,461.79,915.188c391.732,408.221,662.5,1080.295,427.152,1437.84
					C1465.353,3198.751,133.894,2988.25,539.165,847.864z"/>
				<path style="opacity:0.43;fill:#FFFFFF;" d="M590.108,1112.308c0.689,4.345,1.862,9.918,2.873,15.024l3.339,15.61l7.031,31.183
					l14.654,62.261c10.092,41.436,20.698,82.748,31.681,123.955c21.802,82.454,44.971,164.538,69.832,246.097
					c50.105,162.975,104.272,324.737,167.152,483.122c31.784,79.025,63.81,157.974,99.15,235.459
					c35.331,77.467,72.473,154.117,112.536,229.219c79.572,150.447,170.47,295.109,276.887,428.335
					c1.458,1.79,1.188,4.423-0.602,5.881c-1.737,1.414-4.302,1.165-5.781-0.485c-56.46-64.39-108.011-132.988-156.588-203.573
					c-48-71.011-91.816-144.723-133.659-219.487c-81.943-150.513-153.185-306.659-215.457-466.123
					c-31.281-79.693-59.922-160.367-87.404-241.393c-27.43-81.05-53.108-162.687-76.373-245.008
					c-23.402-82.272-45.614-164.879-65.486-248.059c-9.842-41.613-19.299-83.313-28.24-125.127
					c-4.393-20.924-8.796-41.845-12.857-62.843l-5.867-31.552l-2.762-15.827c-0.82-5.409-1.798-10.302-2.416-16.556
					c-0.225-2.275,1.437-4.302,3.711-4.526c2.19-0.216,4.149,1.314,4.494,3.458L590.108,1112.308z"/>
			</g>
			<g>
				<path style="fill:#91B3FA;" d="M856.074,459.153c251.562,163.742,1676.59,1176.411,966.517,2684.328
					c0,0-1109.768-425.174-1005.76-2664.298C817.74,459.595,839.64,448.456,856.074,459.153z"/>
				<path style="opacity:0.43;fill:#FFFFFF;" d="M959.935,742.326c30.485,40.376,59.725,81.526,88.611,122.973
					c28.818,41.482,57.078,83.348,84.794,125.571c55.462,84.426,108.886,170.196,160.148,257.248
					c102.444,174.123,196.74,353.221,278.952,537.924c81.959,184.698,152.269,375.141,201.255,571.612
					c12.4,49.06,22.928,98.596,32.179,148.366c2.186,12.467,4.683,24.88,6.614,37.392l5.955,37.51
					c3.448,25.086,7.104,50.152,9.646,75.361c11.361,100.673,14.037,202.479,6.578,303.733c-0.313,4.25-4.012,7.442-8.262,7.129
					c-4.25-0.313-7.441-4.012-7.128-8.262l0.002-0.028l0.005-0.068c7.74-100.098,5.482-200.993-5.432-300.964
					c-2.43-25.029-5.971-49.936-9.303-74.864l-5.779-37.288c-1.873-12.438-4.31-24.787-6.438-37.185
					c-9.014-49.503-19.301-98.806-31.461-147.669c-48.023-195.681-117.393-385.791-198.476-570.331
					c-81.334-184.551-174.806-363.689-276.464-537.935c-50.869-87.115-103.909-172.969-158.992-257.493
					c-27.526-42.272-55.598-84.189-84.225-125.721c-28.68-41.477-57.778-82.742-87.977-123.046l-0.027-0.036
					c-1.083-1.445-0.789-3.493,0.656-4.576C956.81,740.597,958.852,740.881,959.935,742.326z"/>
			</g>
		</g>
		<g>
			<g>
				<path style="fill:#91B3FA;" d="M3068.786,3180.809h-523.599V2042.924h590.014v1071.469
					C3135.202,3151.074,3105.467,3180.809,3068.786,3180.809z"/>
				
					<linearGradient id="SVGID_00000157280363941899164120000015860650102058220734_" gradientUnits="userSpaceOnUse" x1="2903.7073" y1="714.4674" x2="2873.4468" y2="1117.9353">
					<stop  offset="0" style="stop-color:#4F52FF"/>
					<stop  offset="1" style="stop-color:#4042E2"/>
				</linearGradient>
				<path style="fill:url(#SVGID_00000157280363941899164120000015860650102058220734_);" d="M3214.225,2141.259h-697.134
					l-127.588-512.75h675.459l176.725,469.743C3250.993,2118.315,3236.342,2141.259,3214.225,2141.259z"/>
				
					<linearGradient id="SVGID_00000139288983807655371380000002212016382653001395_" gradientUnits="userSpaceOnUse" x1="2694.105" y1="2127.5146" x2="2710.917" y2="627.8869">
					<stop  offset="0" style="stop-color:#4F52FF"/>
					<stop  offset="1" style="stop-color:#4042E2"/>
				</linearGradient>
				<path style="fill:url(#SVGID_00000139288983807655371380000002212016382653001395_);" d="M3068.643,1635.434l-718.433,19.292
					l-19.117-63.122l687.196-12.263c25.777,0,46.674,15.254,46.674,34.071L3068.643,1635.434z"/>
				<g style="opacity:0.89;">
					<path style="fill:#FFFFFF;" d="M3009.403,2871.754h-334.905c-0.62,0-1.123-0.503-1.123-1.123v-517.529
						c0-0.62,0.503-1.123,1.123-1.123h334.905c0.62,0,1.123,0.503,1.123,1.123v517.529
						C3010.526,2871.251,3010.023,2871.754,3009.403,2871.754z"/>
					<g>
						<path style="fill:#7D97F4;" d="M2828.237,2843.658h-129.653c-0.345,0-0.624-0.28-0.624-0.624v-462.334
							c0-0.345,0.28-0.624,0.624-0.624h129.653c0.344,0,0.624,0.28,0.624,0.624v462.334
							C2828.861,2843.378,2828.581,2843.658,2828.237,2843.658z"/>
						<path style="fill:#7D97F4;" d="M2985.318,2843.658h-129.653c-0.345,0-0.624-0.28-0.624-0.624v-462.335
							c0-0.345,0.279-0.624,0.624-0.624h129.653c0.345,0,0.624,0.28,0.624,0.624v462.334
							C2985.942,2843.378,2985.663,2843.658,2985.318,2843.658z"/>
					</g>
				</g>
			</g>
			<g>
				<path style="fill:#91B3FA;" d="M733.57,3180.809h543.796V2042.924H687.351V3134.59
					C687.351,3160.116,708.044,3180.809,733.57,3180.809z"/>
				
					<linearGradient id="SVGID_00000108270979716088976390000003320734053521004450_" gradientUnits="userSpaceOnUse" x1="1112.2025" y1="695.9794" x2="1076.8994" y2="1099.4467">
					<stop  offset="0" style="stop-color:#4F52FF"/>
					<stop  offset="1" style="stop-color:#4042E2"/>
				</linearGradient>
				<path style="fill:url(#SVGID_00000108270979716088976390000003320734053521004450_);" d="M608.327,2141.259h697.134
					l135.63-512.75H757.59l-176.726,469.743C571.56,2118.315,586.211,2141.259,608.327,2141.259z"/>
				
					<linearGradient id="SVGID_00000179604740497632094880000003397414289177877433_" gradientUnits="userSpaceOnUse" x1="1137.5023" y1="2110.0637" x2="1154.3142" y2="610.4366">
					<stop  offset="0" style="stop-color:#4F52FF"/>
					<stop  offset="1" style="stop-color:#4042E2"/>
				</linearGradient>
				<path style="fill:url(#SVGID_00000179604740497632094880000003397414289177877433_);" d="M757.591,1635.532l768.171,5.242
					l3.171-61.433l-721.066-0.001c-27.766,0-50.275,15.254-50.275,34.071V1635.532z"/>
				<g style="opacity:0.89;">
					<path style="fill:#FFFFFF;" d="M813.149,2871.754h334.905c0.62,0,1.123-0.503,1.123-1.123v-517.529
						c0-0.62-0.503-1.123-1.123-1.123H813.149c-0.62,0-1.123,0.503-1.123,1.123v517.529
						C812.026,2871.251,812.529,2871.754,813.149,2871.754z"/>
					<g>
						<path style="fill:#7D97F4;" d="M994.316,2843.658h129.653c0.345,0,0.624-0.28,0.624-0.624v-462.334
							c0-0.345-0.279-0.624-0.624-0.624H994.316c-0.345,0-0.624,0.28-0.624,0.624v462.334
							C993.692,2843.378,993.971,2843.658,994.316,2843.658z"/>
						<path style="fill:#7D97F4;" d="M837.234,2843.658h129.653c0.345,0,0.624-0.28,0.624-0.624v-462.334
							c0-0.345-0.279-0.624-0.624-0.624H837.234c-0.345,0-0.624,0.28-0.624,0.624v462.334
							C836.61,2843.378,836.889,2843.658,837.234,2843.658z"/>
					</g>
				</g>
			</g>
			<path style="fill:#BDD0FB;" d="M1901.441,1331.233c0,0-799.894,603.873-819.711,603.873v1240.696
				c0,30.502,24.727,55.229,55.229,55.229h1544.969c21.664,0,39.225-17.562,39.225-39.225v-1256.7L1901.441,1331.233z"/>
			<g>
				<path style="fill:#91B3FA;" d="M2118.941,3180.809h-508.3v-75.567c0-5.888,4.773-10.66,10.661-10.66h486.98
					c5.887,0,10.66,4.773,10.66,10.66V3180.809z"/>
				<path style="fill:#7D97F4;" d="M2118.941,3235.671h-508.3v-83.057c0-1.751,1.419-3.171,3.171-3.171h501.959
					c1.751,0,3.17,1.419,3.17,3.17V3235.671z"/>
				
					<linearGradient id="SVGID_00000042704704567416052100000010420046774981917067_" gradientUnits="userSpaceOnUse" x1="1933.1921" y1="2661.2673" x2="2895.6787" y2="1308.7225">
					<stop  offset="0" style="stop-color:#4F52FF"/>
					<stop  offset="1" style="stop-color:#4042E2"/>
				</linearGradient>
				<path style="fill:url(#SVGID_00000042704704567416052100000010420046774981917067_);" d="M2038.257,3094.582h-346.933v-673.248
					c0-1.966,1.594-3.56,3.56-3.56h339.813c1.966,0,3.56,1.594,3.56,3.56V3094.582z"/>
				<path style="opacity:0.51;fill:#FFFFFF;" d="M2013.761,2372.219h-297.94c-13.529,0-24.496-10.967-24.496-24.497v-21.397
					c0-12.87,9.96-23.546,22.799-24.438l297.94-20.696c14.164-0.984,26.194,10.24,26.194,24.438v42.093
					C2038.257,2361.252,2027.29,2372.219,2013.761,2372.219z"/>
				<g>
					<path style="opacity:0.9;fill:#7D97F4;" d="M2313.766,2071.559h-3.297c-85.685,0-160.699,60.663-160.699,146.348v154.312
						h163.996V2071.559z"/>
					<path style="opacity:0.9;fill:#7D97F4;" d="M2149.77,2417.774v453.98c0,15.287,17.945,38.986,33.231,38.986h130.765v-492.967
						H2149.77z"/>
					<path style="opacity:0.9;fill:#7D97F4;" d="M2358.544,2071.559h-8.335v300.66h163.997v-154.312
						C2514.206,2132.222,2444.23,2071.559,2358.544,2071.559z"/>
					<path style="opacity:0.9;fill:#7D97F4;" d="M2350.209,2910.74h135.804c15.286,0,28.193-23.699,28.193-38.986v-453.98h-163.997
						V2910.74z"/>
				</g>
				<g>
					<path style="fill:#7D97F4;" d="M1410.491,2071.559h-3.297c-85.686,0-160.7,60.663-160.7,146.348v154.312h163.996V2071.559z"/>
					<path style="fill:#7D97F4;" d="M1246.494,2417.774v453.98c0,15.287,17.945,38.986,33.231,38.986h130.766v-492.967H1246.494z"/>
					<path style="fill:#7D97F4;" d="M1455.269,2071.559h-8.334v300.66h163.996v-154.312
						C1610.93,2132.222,1540.954,2071.559,1455.269,2071.559z"/>
					<path style="fill:#7D97F4;" d="M1446.934,2910.74h135.803c15.286,0,28.193-23.699,28.193-38.986v-453.98h-163.996V2910.74z"/>
				</g>
				<path style="fill:#FFFFFF;" d="M2528.394,2939.095h-394.775c-22.637,0-41.052-18.417-41.052-41.054v-683.514
					c0-108.088,87.938-196.024,196.027-196.024h84.828c108.089,0,196.025,87.936,196.025,196.024v683.514
					C2569.447,2920.678,2551.031,2939.095,2528.394,2939.095z M2288.594,2022.305c-105.993,0-192.224,86.23-192.224,192.222v683.514
					c0,20.541,16.71,37.252,37.25,37.252h394.775c20.539,0,37.25-16.71,37.25-37.252v-683.514
					c0-105.992-86.229-192.222-192.223-192.222H2288.594z"/>
				<path style="fill:#FFFFFF;" d="M1625.296,2939.095h-394.774c-22.637,0-41.052-18.417-41.052-41.054v-683.514
					c0-108.088,87.936-196.024,196.024-196.024h84.828c108.089,0,196.026,87.936,196.026,196.024v683.514
					C1666.348,2920.678,1647.933,2939.095,1625.296,2939.095z M1385.494,2022.305c-105.992,0-192.223,86.23-192.223,192.222v683.514
					c0,20.541,16.711,37.252,37.25,37.252h394.774c20.539,0,37.25-16.71,37.25-37.252v-683.514
					c0-105.992-86.231-192.222-192.224-192.222H1385.494z"/>
				<path style="fill:#7D97F4;" d="M1703.59,3094.582h-8.383c-3.266,0-5.914-2.648-5.914-5.914v-665.862
					c0-2.779,2.253-5.032,5.032-5.032h9.265V3094.582z"/>
			</g>
			<g>
				
					<linearGradient id="SVGID_00000003820695277501842690000013976400762236690359_" gradientUnits="userSpaceOnUse" x1="2237.1501" y1="-775.6602" x2="2342.7639" y2="1811.8839">
					<stop  offset="0" style="stop-color:#4F52FF"/>
					<stop  offset="1" style="stop-color:#4042E2"/>
				</linearGradient>
				
					<rect x="2260.388" y="1344.42" style="fill:url(#SVGID_00000003820695277501842690000013976400762236690359_);" width="135.605" height="220.794"/>
				
					<linearGradient id="SVGID_00000092448480778858324440000007353675037831388584_" gradientUnits="userSpaceOnUse" x1="2318.3271" y1="1038.0968" x2="2354.0271" y2="1912.7495">
					<stop  offset="0" style="stop-color:#4F52FF"/>
					<stop  offset="1" style="stop-color:#4042E2"/>
				</linearGradient>
				<path style="fill:url(#SVGID_00000092448480778858324440000007353675037831388584_);" d="M2440.684,1380.197h-219.183v-61.707
					c0-3.366,2.729-6.095,6.095-6.095h203.809c5.124,0,9.278,4.154,9.278,9.278V1380.197z"/>
				
					<linearGradient id="SVGID_00000171679249869978097060000007703226335331678141_" gradientUnits="userSpaceOnUse" x1="2481.4956" y1="1095.0497" x2="3096.7839" y2="222.5512">
					<stop  offset="0" style="stop-color:#4F52FF"/>
					<stop  offset="1" style="stop-color:#4042E2"/>
				</linearGradient>
				<path style="fill:url(#SVGID_00000171679249869978097060000007703226335331678141_);" d="M1031.472,1998.417l869.969-667.185
					l825.799,640.547c30.015,23.282,74.042,6.976,81.651-30.241l11.583-56.654l-919.034-700.094l-889.585,679.472
					c-15.928,12.166-21.708,33.508-14.095,52.049L1031.472,1998.417z"/>
			</g>
		</g>
		<g>
			<g>
				
					<linearGradient id="SVGID_00000140717235069693976520000003757969455109327525_" gradientUnits="userSpaceOnUse" x1="2609.4114" y1="777.3379" x2="2407.8484" y2="1510.0017">
					<stop  offset="0" style="stop-color:#2B3582"/>
					<stop  offset="1" style="stop-color:#150E42"/>
				</linearGradient>
				<polygon style="fill:url(#SVGID_00000140717235069693976520000003757969455109327525_);" points="2576.302,1556.345 
					2574.007,1554.339 1899.249,965.272 1903.668,960.209 2576.132,1547.269 3216.005,944.218 3220.615,949.11 				"/>
				
					<linearGradient id="SVGID_00000182527151685565906250000006362461259282653611_" gradientUnits="userSpaceOnUse" x1="2680.7456" y1="959.7131" x2="2464.2798" y2="1746.5479">
					<stop  offset="0" style="stop-color:#2B3582"/>
					<stop  offset="1" style="stop-color:#150E42"/>
				</linearGradient>
				<polygon style="fill:url(#SVGID_00000182527151685565906250000006362461259282653611_);" points="2575.856,1775.505 
					2569.131,1775.393 2572.854,1551.751 2569.131,930.896 2575.856,930.857 2579.579,1551.787 				"/>
				
					<linearGradient id="SVGID_00000095335620965311014000000018376485939012961668_" gradientUnits="userSpaceOnUse" x1="2600.0005" y1="886.6011" x2="2423.0405" y2="1529.8354">
					<stop  offset="0" style="stop-color:#2B3582"/>
					<stop  offset="1" style="stop-color:#150E42"/>
				</linearGradient>
				<polygon style="fill:url(#SVGID_00000095335620965311014000000018376485939012961668_);" points="2576.214,1571.975 
					2248.61,971.954 2254.514,968.73 2576.22,1557.954 2898.531,968.73 2904.428,971.954 				"/>
			</g>
			<g>
				
					<linearGradient id="SVGID_00000044897469938434826770000000469049208817731735_" gradientUnits="userSpaceOnUse" x1="1749.9965" y1="306.1856" x2="3831.4458" y2="1758.3599">
					<stop  offset="0" style="stop-color:#FE7062"/>
					<stop  offset="1" style="stop-color:#FF928E"/>
				</linearGradient>
				<path style="fill:url(#SVGID_00000044897469938434826770000000469049208817731735_);" d="M3229.044,962.74l-168.002-86.878
					L2896.877,983.05L2733.84,861.76l-157.622,121.29l-151.755-115.649L2252.175,980.23l-166.648-104.367l-196.435,103.463
					c36.783-148.707,177.141-498.362,683.402-498.362C3060.817,480.964,3193.503,806.136,3229.044,962.74z"/>
				
					<linearGradient id="SVGID_00000031922745244065087480000000493193258840834701_" gradientUnits="userSpaceOnUse" x1="2324.708" y1="566.343" x2="2332.23" y2="216.5743">
					<stop  offset="0" style="stop-color:#E1473D"/>
					<stop  offset="1" style="stop-color:#E9605A"/>
				</linearGradient>
				<path style="fill:url(#SVGID_00000031922745244065087480000000493193258840834701_);" d="M2085.528,875.863
					c0,0,121.667-379.856,473.541-394.899c0,0-330.06,203.091-306.893,499.266C2203.69,931.745,2085.528,875.863,2085.528,875.863z"
					/>
				
					<linearGradient id="SVGID_00000170980138029206293270000004575162797208000650_" gradientUnits="userSpaceOnUse" x1="2540.0559" y1="743.8314" x2="2421.5859" y2="1174.4596">
					<stop  offset="0" style="stop-color:#E1473D"/>
					<stop  offset="1" style="stop-color:#E9605A"/>
				</linearGradient>
				<path style="fill:url(#SVGID_00000170980138029206293270000004575162797208000650_);" d="M2576.218,983.05l-3.723-502.086
					c0,0-166.271,221.896-148.031,386.438C2510.698,953.635,2576.218,983.05,2576.218,983.05z"/>
				
					<linearGradient id="SVGID_00000096764336210771648470000009862150454310801286_" gradientUnits="userSpaceOnUse" x1="2730.2056" y1="748.292" x2="2632.5933" y2="1103.1042">
					<stop  offset="0" style="stop-color:#E1473D"/>
					<stop  offset="1" style="stop-color:#E9605A"/>
				</linearGradient>
				<path style="fill:url(#SVGID_00000096764336210771648470000009862150454310801286_);" d="M2572.495,480.964
					c0,0,159.125,204.971,161.345,380.796l163.037,121.29C2896.877,983.05,2965.552,652.087,2572.495,480.964z"/>
				
					<linearGradient id="SVGID_00000120539568094076023950000006499670728287419834_" gradientUnits="userSpaceOnUse" x1="2906.7253" y1="721.5793" x2="2827.9307" y2="1007.9911">
					<stop  offset="0" style="stop-color:#E1473D"/>
					<stop  offset="1" style="stop-color:#E9605A"/>
				</linearGradient>
				<path style="fill:url(#SVGID_00000120539568094076023950000006499670728287419834_);" d="M2583.74,482.844
					c0,0,433.712,139.155,477.302,393.019l168.002,86.878C3229.044,962.74,3161.046,490.366,2583.74,482.844z"/>
			</g>
		</g>
		<g>
			
				<linearGradient id="SVGID_00000002372991736258722770000017293661960678328473_" gradientUnits="userSpaceOnUse" x1="2693.4097" y1="332.7642" x2="2627.8459" y2="932.9227">
				<stop  offset="0" style="stop-color:#09005D"/>
				<stop  offset="1" style="stop-color:#1A0F91"/>
			</linearGradient>
			<path style="fill:url(#SVGID_00000002372991736258722770000017293661960678328473_);" d="M2471.273,1590.149
				c0,0-114.731-160.309-55.008-147.736c59.723,12.574,66.01,45.578,133.59,9.43c67.581-36.148,83.298-69.153,95.871-20.432
				c12.573,48.721,0,66.009,51.865,56.58c51.865-9.43,62.866,4.715-18.86,86.441
				C2590.719,1574.432,2471.273,1590.149,2471.273,1590.149z"/>
			
				<linearGradient id="SVGID_00000128460176145937193050000014200109275639840924_" gradientUnits="userSpaceOnUse" x1="2752.3894" y1="339.2073" x2="2686.8259" y2="939.3652">
				<stop  offset="0" style="stop-color:#09005D"/>
				<stop  offset="1" style="stop-color:#1A0F91"/>
			</linearGradient>
			<path style="fill:url(#SVGID_00000128460176145937193050000014200109275639840924_);" d="M2462.891,1602.916
				c0,0-354.146,307.423-249.369,560.983c0,0,54.484,161.046,349.955,161.046s316.426-108.502,347.859-165.082
				c25.146-81.726,97.443-187.422-232.605-556.947H2462.891z"/>
			
				<linearGradient id="SVGID_00000059281779462074296700000005197470867557055660_" gradientUnits="userSpaceOnUse" x1="2598.908" y1="1473.532" x2="2896.4653" y2="232.8673">
				<stop  offset="0" style="stop-color:#09005D"/>
				<stop  offset="1" style="stop-color:#1A0F91"/>
			</linearGradient>
			<path style="fill:url(#SVGID_00000059281779462074296700000005197470867557055660_);" d="M2697.666,1590.433
				c0,8.246-6.685,14.931-14.931,14.931h-223.183c-8.246,0-14.931-6.685-14.931-14.931v-2.271c0-8.246,6.685-14.931,14.931-14.931
				h223.183c8.246,0,14.931,6.685,14.931,14.931V1590.433z"/>
			<g>
				
					<linearGradient id="SVGID_00000087384621638826559790000002795113980926736776_" gradientUnits="userSpaceOnUse" x1="2768.937" y1="1688.3977" x2="2552.0728" y2="2011.172">
					<stop  offset="0" style="stop-color:#FF928E"/>
					<stop  offset="1" style="stop-color:#FE7062"/>
				</linearGradient>
				<path style="fill:url(#SVGID_00000087384621638826559790000002795113980926736776_);" d="M2558.012,2149.79v-29.161
					c-30.399-1.217-60.467-8.391-81.822-17.74c-7.625-3.338-11.513-11.896-9.323-19.927l7.408-27.162
					c2.717-9.964,13.554-15.118,23.079-11.125c21.185,8.881,47.341,15.907,75.547,15.907c29.278,0,51.114-9.927,51.114-30.275
					c0-18.36-16.872-29.276-57.566-40.194c-58.062-15.88-99.75-41.191-99.75-92.306c0-46.155,33.748-81.388,92.306-90.815v-29.164
					c0-9.384,7.607-16.991,16.99-16.991h17.133c9.384,0,16.99,7.607,16.99,16.991v26.184c28.129,1.126,48.605,5.937,64.854,11.646
					c8.325,2.925,12.875,11.894,10.565,20.41l-6.813,25.12c-2.627,9.687-12.98,14.993-22.368,11.443
					c-14.961-5.658-36.113-11.549-63.607-11.549c-34.739,0-44.662,14.391-44.662,27.294c0,15.88,20.842,26.797,66.001,40.694
					c64.514,19.354,91.312,46.151,91.312,94.289c0,44.167-32.752,83.868-96.273,93.795v32.634c0,9.384-7.607,16.991-16.99,16.991
					h-17.135C2565.619,2166.781,2558.012,2159.174,2558.012,2149.79z"/>
			</g>
			<g>
				<path style="fill:#FFFFFF;" d="M2592.138,2170.796h-17.135c-11.583,0-21.007-9.422-21.007-21.005v-25.335
					c-27.818-1.577-57.236-8.178-79.416-17.886c-9.328-4.083-14.309-14.686-11.589-24.664l7.409-27.163
					c1.587-5.817,5.597-10.665,11.004-13.305c5.47-2.663,11.848-2.836,17.502-0.467c16.974,7.115,43.59,15.596,73.993,15.596
					c11.05,0,47.099-1.895,47.099-26.261c0-15.596-15.305-25.774-54.591-36.314c-92.077-25.182-102.725-66.952-102.725-96.182
					c0-48.023,35.269-83.882,92.305-94.205v-25.774c0-11.583,9.424-21.009,21.007-21.009h17.133
					c11.585,0,21.009,9.426,21.009,21.009v22.35c22.913,1.216,43.286,5.052,62.169,11.689c10.218,3.589,15.976,14.682,13.111,25.253
					l-6.813,25.119c-1.549,5.715-5.454,10.532-10.71,13.215c-5.25,2.687-11.432,3.024-16.955,0.933
					c-20.091-7.598-40.433-11.289-62.187-11.289c-25.831,0-40.646,8.484-40.646,23.276c0,12.536,17.71,22.868,63.165,36.855
					c66.864,20.059,94.148,48.489,94.148,98.128c0,48.987-37.661,86.855-96.274,97.202v29.23
					C2613.145,2161.374,2603.721,2170.796,2592.138,2170.796z M2490.656,2047.341c-1.969,0-3.93,0.439-5.729,1.318
					c-3.377,1.647-5.784,4.558-6.776,8.198l-7.409,27.163c-1.681,6.162,1.353,12.693,7.058,15.191
					c22.34,9.779,52.386,16.282,80.373,17.404l3.856,0.153v33.023c0,7.151,5.819,12.971,12.974,12.971h17.135
					c7.155,0,12.973-5.821,12.973-12.971v-36.071l3.397-0.533c57.289-8.951,92.878-43.375,92.878-89.828
					c0-45.991-24.8-71.345-88.449-90.44c-43.626-13.427-68.865-25.013-68.865-44.543c0-29.05,37.259-31.309,48.679-31.309
					c22.742,0,44.012,3.864,65.026,11.807c3.463,1.31,7.18,1.106,10.459-0.569c3.293-1.683,5.64-4.581,6.611-8.167l6.813-25.119
					c1.771-6.527-1.751-13.368-8.02-15.572c-19.171-6.739-40.001-10.473-63.683-11.422l-3.856-0.153v-30.042
					c0-7.155-5.821-12.975-12.976-12.975h-17.133c-7.155,0-12.974,5.821-12.974,12.975v32.584l-3.379,0.545
					c-55.683,8.963-88.926,41.429-88.926,86.851c0,42.849,29.852,70.122,96.792,88.428c36.322,9.743,60.523,20.969,60.523,44.069
					c0,21.475-20.611,34.294-55.132,34.294c-25.121,0-51.782-5.609-77.1-16.223
					C2494.149,2047.686,2492.4,2047.341,2490.656,2047.341z"/>
			</g>
		</g>
		<g>
			
				<linearGradient id="SVGID_00000035499344517578962940000008961564004310662056_" gradientUnits="userSpaceOnUse" x1="2765.1189" y1="2574.8989" x2="2730.4155" y2="2688.9246" gradientTransform="matrix(0.9244 -0.3814 0.3814 0.9244 -2470.3018 839.3183)">
				<stop  offset="0" style="stop-color:#A22B25"/>
				<stop  offset="1" style="stop-color:#C0423C"/>
			</linearGradient>
			<path style="fill:url(#SVGID_00000035499344517578962940000008961564004310662056_);" d="M1057.315,2236.754
				c0,0-18.183-35.401-1.112-46.021c17.07-10.619,30.745,5.19,37.581,13.095c6.838,7.905-16.15,38.843-22.261,41.364
				C1065.413,2247.714,1057.315,2236.754,1057.315,2236.754z"/>
			
				<linearGradient id="SVGID_00000044887489067106055970000013267523791087478462_" gradientUnits="userSpaceOnUse" x1="1503.7231" y1="2430.4583" x2="1216.8429" y2="2010.9635" gradientTransform="matrix(0.9687 0.2484 -0.2484 0.9687 284.5733 -173.1156)">
				<stop  offset="0" style="stop-color:#A22B25"/>
				<stop  offset="1" style="stop-color:#C0423C"/>
			</linearGradient>
			<path style="fill:url(#SVGID_00000044887489067106055970000013267523791087478462_);" d="M1075.899,2230.631
				c0,0-59.435,156.26,43.974,217.743c14.632,8.7,18.726,27.996,9.405,42.241c-2.006,3.066-4.256,6.157-6.766,9.167
				c-11.975,14.358-33.945,14.425-46.091,0.212c-33.176-38.824-89.234-131.933-17.62-264.272L1075.899,2230.631z"/>
			
				<linearGradient id="SVGID_00000121270372945878548540000002168948502434583437_" gradientUnits="userSpaceOnUse" x1="1134.38" y1="2866.7532" x2="942.7233" y2="3103.8025">
				<stop  offset="0" style="stop-color:#A22B25"/>
				<stop  offset="1" style="stop-color:#C0423C"/>
			</linearGradient>
			<path style="fill:url(#SVGID_00000121270372945878548540000002168948502434583437_);" d="M1177.335,2871.004l-76.493-21.418
				l-19.165,109.859c0,0-31.101,0.482-56.777,16.435c-25.676,15.953-116.238,99.658-116.238,99.658l-15.849-3.646l-6.104,3.865
				l-8.823,67.271l25.339-35.784c4.022-5.681,15.058-14.411,14.844-15.025c48.883-23.142,166.47-90.322,197.684-108.244
				c5.037-2.893,9.088-7.205,11.67-12.408L1177.335,2871.004z"/>
			
				<linearGradient id="SVGID_00000129203991664224351330000011489647455043210380_" gradientUnits="userSpaceOnUse" x1="1562.5692" y1="2603.5144" x2="1069.9786" y2="3121.3225">
				<stop  offset="0" style="stop-color:#A22B25"/>
				<stop  offset="1" style="stop-color:#C0423C"/>
			</linearGradient>
			<path style="fill:url(#SVGID_00000129203991664224351330000011489647455043210380_);" d="M1172.39,3192.71
				c-0.635-0.011-1.259,0.04-1.897,0c2.834-35.358,15.787-190.974,28.748-249.299c14.663-65.984-21.994-197.951-21.994-197.951
				l-65.984,65.983l36.658,124.636c-25.121,37.681,4.098,258.355,3.469,258.259l0.04,0.491l-9.565,13.152l1.164,7.13l58.432,34.481
				l-22.991-37.336C1174.819,3206.329,1172.802,3199.61,1172.39,3192.71z"/>
			
				<linearGradient id="SVGID_00000010268286818982761040000011263110406949069190_" gradientUnits="userSpaceOnUse" x1="-2559.5388" y1="3119.1465" x2="-2620.9568" y2="3223.0847" gradientTransform="matrix(-1 0 0 1 -1461.2897 0)">
				<stop  offset="0" style="stop-color:#4F52FF"/>
				<stop  offset="1" style="stop-color:#4042E2"/>
			</linearGradient>
			<path style="fill:url(#SVGID_00000010268286818982761040000011263110406949069190_);" d="M1205.308,3255h-18.648
				c-3.49,0-6.782-1.602-8.911-4.368c-5.813-7.553-17.857-22.29-23.616-22.674c-7.753-0.519-6.761,27.042-6.761,27.042h-4.346
				l-5.505-34.248c-1.385-8.617,2.901-17.154,10.639-21.191l0,0c0,0,1.772,13.106,11.381,18.903
				c9.609,5.798,39.103,26.559,39.103,26.559s3.613-0.515,7.579,0.201C1212.109,3246.288,1211.287,3255,1205.308,3255z"/>
			
				<linearGradient id="SVGID_00000174584257490938052020000006000981361396860558_" gradientUnits="userSpaceOnUse" x1="-2675.0632" y1="2267.2104" x2="-2736.4753" y2="2371.1387" gradientTransform="matrix(-0.3919 -0.9201 -0.9201 0.3919 1995.1541 -352.8903)">
				<stop  offset="0" style="stop-color:#4F52FF"/>
				<stop  offset="1" style="stop-color:#4042E2"/>
			</linearGradient>
			<path style="fill:url(#SVGID_00000174584257490938052020000006000981361396860558_);" d="M874.417,3148.687l-7.307-17.155
				c-1.368-3.21-1.184-6.867,0.527-9.91c4.671-8.309,13.509-25.164,11.606-30.614c-2.562-7.335-27.529,4.379-27.529,4.379
				l-1.703-3.998l29.351-18.486c7.385-4.651,16.918-4.054,23.665,1.482l0,0c0,0-11.363,6.767-12.93,17.879
				c-1.568,11.113-9.109,46.384-9.109,46.384s1.89,3.121,2.785,7.052C885.098,3151.529,876.76,3154.188,874.417,3148.687z"/>
			
				<linearGradient id="SVGID_00000082356107585489738880000009184685812417672624_" gradientUnits="userSpaceOnUse" x1="864.4158" y1="3223.5095" x2="1076.3376" y2="2891.4985">
				<stop  offset="0" style="stop-color:#4F52FF"/>
				<stop  offset="1" style="stop-color:#4042E2"/>
			</linearGradient>
			<path style="fill:url(#SVGID_00000082356107585489738880000009184685812417672624_);" d="M1194.051,2633.889
				c0,0-2.156,13.216,1.002,49.546c3.16,36.331,18.26,121.627,15.186,203.238c0,0-42.929,10.004-117.514,5.266
				c0,0-31.476-127.419-23.808-175.859c7.668-48.44,49.263-83.19,49.263-83.19L1194.051,2633.889z"/>
			
				<linearGradient id="SVGID_00000017487966770988277070000012156335694902245040_" gradientUnits="userSpaceOnUse" x1="2805.0642" y1="2405.7305" x2="2854.9136" y2="2405.7305" gradientTransform="matrix(1 0 0 1 -1687.3363 0)">
				<stop  offset="0" style="stop-color:#A22B25"/>
				<stop  offset="1" style="stop-color:#C0423C"/>
			</linearGradient>
			<polygon style="fill:url(#SVGID_00000017487966770988277070000012156335694902245040_);" points="1162.33,2391.122 
				1167.577,2452.818 1117.728,2452.818 1130.123,2358.643 			"/>
			
				<linearGradient id="SVGID_00000163046146595604737060000013208016255820502407_" gradientUnits="userSpaceOnUse" x1="1966.9203" y1="3827.7451" x2="1750.0565" y2="4150.5186" gradientTransform="matrix(1 0 0 1 -1687.3363 0)">
				<stop  offset="0" style="stop-color:#FF928E"/>
				<stop  offset="1" style="stop-color:#FE7062"/>
			</linearGradient>
			<path style="fill:url(#SVGID_00000163046146595604737060000013208016255820502407_);" d="M1102.961,2444.287
				c17.204-0.949,55.669-2.705,82.918-1.22c14.347,0.781,26.365,11.075,29.301,25.141l6.646,31.85
				c2.476,11.863,2.105,24.145-1.08,35.838l-26.695,97.993c0,0-23.744,14.269-75.87-1c0,0-45.777-109.163-27.039-178.993
				C1092.598,2448.472,1097.354,2444.596,1102.961,2444.287z"/>
			
				<linearGradient id="SVGID_00000160905091688140224960000002650720174694617220_" gradientUnits="userSpaceOnUse" x1="2888.0913" y1="2405.7102" x2="2791.2207" y2="2264.0598" gradientTransform="matrix(1 0 0 1 -1687.3363 0)">
				<stop  offset="0" style="stop-color:#A22B25"/>
				<stop  offset="1" style="stop-color:#C0423C"/>
			</linearGradient>
			<path style="fill:url(#SVGID_00000160905091688140224960000002650720174694617220_);" d="M1183.437,2319.869
				c1.78,1.05,15.804,50.514,4.052,71.252c-11.752,20.74-47.641-2.49-57.366-32.479
				C1120.397,2328.654,1136.023,2291.907,1183.437,2319.869z"/>
			
				<linearGradient id="SVGID_00000089576123696846733180000015620914171504110772_" gradientUnits="userSpaceOnUse" x1="2570.5959" y1="2444.7039" x2="2886.2268" y2="2444.7039" gradientTransform="matrix(1 0 0 1 -1687.3363 0)">
				<stop  offset="0" style="stop-color:#09005D"/>
				<stop  offset="1" style="stop-color:#1A0F91"/>
			</linearGradient>
			<path style="fill:url(#SVGID_00000089576123696846733180000015620914171504110772_);" d="M1090.421,2358.643
				c-8.05,39.439-34.721,28.646-53.613,46.192c-30.617,28.439-74.416-0.877-116.997,26.072
				c-30.74,19.456-45.55,69.23-30.799,109.417c20.432,55.66,90.254,78.551,126.438,61.598
				c34.582-16.202,29.658-64.728,76.186-83.481c19.754-7.962,29.505-2.789,41.336-14.589c20.709-20.657,15.121-60.744,12.968-76.187
				c-4.672-33.51-15.906-39.576-10.537-54.303c10.444-28.645,59.159-22.735,63.219-42.957c3.697-18.415-31.612-53.32-64.84-47.819
				C1082.371,2291.096,1094.008,2341.072,1090.421,2358.643z"/>
			
				<linearGradient id="SVGID_00000148619119384892999220000002084604247694168721_" gradientUnits="userSpaceOnUse" x1="899.6581" y1="2481.6729" x2="974.7112" y2="2481.6729">
				<stop  offset="0" style="stop-color:#DAE3FE"/>
				<stop  offset="1" style="stop-color:#E9EFFD"/>
			</linearGradient>
			<path style="fill:url(#SVGID_00000148619119384892999220000002084604247694168721_);" d="M904.366,2530.898
				c-0.61,0-1.16-0.413-1.309-1.03c-6.582-27.326-3.596-49.736,8.88-66.61c20.704-28.004,60.942-30.774,61.347-30.799
				c0.633-0.105,1.377,0.518,1.424,1.262c0.045,0.741-0.518,1.38-1.261,1.424c-0.392,0.024-39.413,2.732-59.357,29.729
				c-11.971,16.201-14.803,37.856-8.414,64.362c0.173,0.722-0.271,1.451-0.994,1.624
				C904.577,2530.885,904.469,2530.898,904.366,2530.898z"/>
			
				<linearGradient id="SVGID_00000106135871443169197810000013072854224904119172_" gradientUnits="userSpaceOnUse" x1="1035.4824" y1="2480.7217" x2="1134.651" y2="2480.7217">
				<stop  offset="0" style="stop-color:#DAE3FE"/>
				<stop  offset="1" style="stop-color:#E9EFFD"/>
			</linearGradient>
			<path style="fill:url(#SVGID_00000106135871443169197810000013072854224904119172_);" d="M1036.155,2555.913
				c-0.055,0-0.113-0.008-0.171-0.021c-0.358-0.095-0.573-0.462-0.481-0.823c6.411-24.6,17.662-41.684,33.436-50.782
				c11.474-6.619,22.22-7.234,31.699-7.778c9.141-0.526,17.034-0.981,23.388-6.63c13.133-11.679,12.373-39.759-2.261-83.462
				c-0.118-0.353,0.073-0.734,0.426-0.852c0.355-0.118,0.734,0.073,0.852,0.426c14.821,44.26,15.452,72.821,1.877,84.892
				c-6.703,5.962-14.813,6.43-24.206,6.969c-9.329,0.536-19.905,1.143-31.103,7.602c-15.449,8.909-26.487,25.717-32.804,49.957
				C1036.729,2555.713,1036.455,2555.913,1036.155,2555.913z"/>
			
				<linearGradient id="SVGID_00000045588458134913764950000013503839241906713279_" gradientUnits="userSpaceOnUse" x1="1108.7919" y1="2331.3359" x2="1185.9" y2="2331.3359">
				<stop  offset="0" style="stop-color:#DAE3FE"/>
				<stop  offset="1" style="stop-color:#E9EFFD"/>
			</linearGradient>
			<path style="fill:url(#SVGID_00000045588458134913764950000013503839241906713279_);" d="M1109.466,2348.855
				c-0.071,0-0.142-0.01-0.216-0.034c-0.352-0.118-0.542-0.502-0.423-0.854c5.097-15.163,19.781-12.91,35.341-10.518
				c9.848,1.514,20.028,3.073,28.664,0.518c6.443-1.911,10.271-4.871,11.377-8.801c1.89-6.69-4.729-14.15-4.794-14.227
				c-0.25-0.276-0.226-0.702,0.049-0.949c0.274-0.25,0.702-0.226,0.949,0.05c0.295,0.326,7.18,8.078,5.095,15.489
				c-1.24,4.403-5.376,7.676-12.291,9.726c-8.93,2.645-19.259,1.059-29.253-0.476c-15.617-2.397-29.121-4.477-33.858,9.618
				C1110.01,2348.679,1109.747,2348.855,1109.466,2348.855z"/>
			
				<linearGradient id="SVGID_00000108292034797256475690000000446941194996885918_" gradientUnits="userSpaceOnUse" x1="1985.3593" y1="2134.9993" x2="1950.6567" y2="2249.022" gradientTransform="matrix(-0.8007 -0.5991 -0.5991 0.8007 4180.3647 1665.1215)">
				<stop  offset="0" style="stop-color:#A22B25"/>
				<stop  offset="1" style="stop-color:#C0423C"/>
			</linearGradient>
			<path style="fill:url(#SVGID_00000108292034797256475690000000446941194996885918_);" d="M1303.965,2257.365
				c0,0,26.408-29.775,12.51-44.302c-13.897-14.527-31.07-2.609-39.657,3.35c-8.587,5.958,5.995,41.636,11.288,45.597
				C1293.398,2265.971,1303.965,2257.365,1303.965,2257.365z"/>
			
				<linearGradient id="SVGID_00000026871609521795437120000013140359679853375385_" gradientUnits="userSpaceOnUse" x1="616.7107" y1="2545.5203" x2="329.8175" y2="2126.0066" gradientTransform="matrix(-1 0 0 1 1764 0)">
				<stop  offset="0" style="stop-color:#A22B25"/>
				<stop  offset="1" style="stop-color:#C0423C"/>
			</linearGradient>
			<path style="fill:url(#SVGID_00000026871609521795437120000013140359679853375385_);" d="M1287.485,2246.819
				c0,0,18.756,166.126-96.684,199.995c-16.335,4.792-25.093,22.467-19.603,38.581c1.182,3.469,2.592,7.021,4.276,10.561
				c8.033,16.882,29.298,22.405,44.594,11.654c41.781-29.366,119.211-105.631,82.716-251.612L1287.485,2246.819z"/>
		</g>
		<g>
			<g>
				
					<linearGradient id="SVGID_00000098211933162776035500000002203790040553059724_" gradientUnits="userSpaceOnUse" x1="-2581.7888" y1="-17189.7695" x2="-2562.9514" y2="-17015.5234" gradientTransform="matrix(-0.6533 0.6093 -0.6821 -0.7313 2755.072 5029.2915)">
					<stop  offset="0" style="stop-color:#09005D"/>
					<stop  offset="1" style="stop-color:#1A0F91"/>
				</linearGradient>
				<path style="fill:url(#SVGID_00000098211933162776035500000002203790040553059724_);" d="M1371.178,2887.415
					c0,0-11.493-17.013-24.039-32.764c-4.903-6.156-13.501-7.452-18.866-2.897c-18.224,15.476-57.06,48.739-69.841,61.912
					c-1.921,1.98-1.085,5.519,1.618,6.921l0,0c2.265,1.175,4.796,1.472,7.069,0.83l91.322-25.811L1371.178,2887.415z"/>
				
					<linearGradient id="SVGID_00000111889658715362214950000008255095290248547257_" gradientUnits="userSpaceOnUse" x1="-328.7301" y1="2510.2898" x2="-298.005" y2="2510.2898" gradientTransform="matrix(-0.7313 0.6821 -0.6821 -0.7313 2844.8291 4945.8682)">
					<stop  offset="0" style="stop-color:#FEBBBA"/>
					<stop  offset="1" style="stop-color:#FF928E"/>
				</linearGradient>
				<path style="fill:url(#SVGID_00000111889658715362214950000008255095290248547257_);" d="M1381.031,2894.519l-18.651-15.776
					c0,0-17.354,5.654-19.702,19.704l23.45,15.094L1381.031,2894.519z"/>
				
					<linearGradient id="SVGID_00000041259688801259611730000003342470965059579557_" gradientUnits="userSpaceOnUse" x1="3500.4612" y1="2183.0991" x2="3463.9001" y2="2549.7834" gradientTransform="matrix(1 0 0 1 -1683.7928 0)">
					<stop  offset="0" style="stop-color:#FEBBBA"/>
					<stop  offset="1" style="stop-color:#FF928E"/>
				</linearGradient>
				<path style="fill:url(#SVGID_00000041259688801259611730000003342470965059579557_);" d="M1794.346,2473.233
					c29.099-65.299,56.569-162.883,24.566-260.414l-18.54-18.541c0,0-0.008,152.759-38.014,228.619
					C1772.982,2439.7,1783.605,2456.506,1794.346,2473.233z"/>
				
					<linearGradient id="SVGID_00000022556501958550238500000009666628106040441490_" gradientUnits="userSpaceOnUse" x1="3494.4438" y1="2182.4995" x2="3457.8828" y2="2549.1836" gradientTransform="matrix(1 0 0 1 -1683.7928 0)">
					<stop  offset="0" style="stop-color:#FEBBBA"/>
					<stop  offset="1" style="stop-color:#FF928E"/>
				</linearGradient>
				<path style="fill:url(#SVGID_00000022556501958550238500000009666628106040441490_);" d="M1795.925,2165.086l-6.997,10.495
					c-1.926,2.889-2.427,6.483-1.338,9.779c2.841,8.604,9.262,25.528,18.308,34.573c12.465,12.466,24.931-17.452,27.424-27.424
					c2.493-9.972-14.959-34.903-19.945-39.889C1808.39,2147.635,1788.445,2150.128,1795.925,2165.086z"/>
				
					<linearGradient id="SVGID_00000016797423266707006880000017116661661317687463_" gradientUnits="userSpaceOnUse" x1="3264.9438" y1="2592.1619" x2="3272.0078" y2="2673.3982" gradientTransform="matrix(1 0 0 1 -1565.2881 0)">
					<stop  offset="0" style="stop-color:#09005D"/>
					<stop  offset="1" style="stop-color:#1A0F91"/>
				</linearGradient>
				<path style="fill:url(#SVGID_00000016797423266707006880000017116661661317687463_);" d="M1700.412,3192.813
					c0,0-3.583,20.281-5.339,40.355c-0.687,7.846,5.362,14.659,13.232,14.986c26.734,1.113,83.92,3.279,104.44,2.363
					c3.085-0.137,5.101-3.295,3.96-6.165l0,0c-0.957-2.404-2.802-4.347-5.153-5.428l-94.46-43.414L1700.412,3192.813z"/>
				
					<linearGradient id="SVGID_00000135653089794672653350000014722938724428161437_" gradientUnits="userSpaceOnUse" x1="3262.7651" y1="3192.7295" x2="3293.4915" y2="3192.7295" gradientTransform="matrix(1 0 0 1 -1565.2881 0)">
					<stop  offset="0" style="stop-color:#FEBBBA"/>
					<stop  offset="1" style="stop-color:#FF928E"/>
				</linearGradient>
				<path style="fill:url(#SVGID_00000135653089794672653350000014722938724428161437_);" d="M1697.477,3180.897l2.878,24.258
					c0,0,16.547,7.702,27.848-0.971l-6.853-27.033L1697.477,3180.897z"/>
				
					<linearGradient id="SVGID_00000172414763630191352610000006704015970509419667_" gradientUnits="userSpaceOnUse" x1="-269.7038" y1="2895.2803" x2="-156.679" y2="3481.5979" gradientTransform="matrix(-1 0 0 1 1408.8547 0)">
					<stop  offset="0" style="stop-color:#09005D"/>
					<stop  offset="1" style="stop-color:#1A0F91"/>
				</linearGradient>
				<path style="fill:url(#SVGID_00000172414763630191352610000006704015970509419667_);" d="M1699.641,2724.842
					c-1.243,6.335-6.673,316.121,26.441,454.948c0.54,2.265-0.608,4.599-2.764,5.481c-5.079,2.075-15.036,5.08-26.969,5.481
					c-3.696,0.124-7.008-2.279-8.051-5.825c-9.466-32.209-74.499-218.586-80.416-372.748c-6.611-172.261,23.553-87.35,23.553-87.35
					L1699.641,2724.842z"/>
				
					<linearGradient id="SVGID_00000165957418149263316530000013086748723225757066_" gradientUnits="userSpaceOnUse" x1="-110.1439" y1="2864.522" x2="2.8803" y2="3450.8362" gradientTransform="matrix(-1 0 0 1 1408.8547 0)">
					<stop  offset="0" style="stop-color:#09005D"/>
					<stop  offset="1" style="stop-color:#1A0F91"/>
				</linearGradient>
				<path style="fill:url(#SVGID_00000165957418149263316530000013086748723225757066_);" d="M1556.556,2730.385
					c-27.771,70.031-36.85,80.978-49.242,160.929c-14.859,95.871-87.398,29.67-126.131-1.458
					c-4.895-3.934-19.443,10.157-20.86,29.967c-1.848,25.828,154.639,148.448,196.971,61.76
					c27.037-55.369,34.529-117.683,52.48-152.157c2.241-4.302,5.898-7.686,10.357-9.596l55.24-23.662l15.586-54.213
					L1556.556,2730.385z"/>
				
					<linearGradient id="SVGID_00000168079582036918070850000009338966649897457809_" gradientUnits="userSpaceOnUse" x1="-116.9605" y1="2492.3699" x2="-125.9269" y2="2851.0249" gradientTransform="matrix(-1 0 0 1 1408.8547 0)">
					<stop  offset="0" style="stop-color:#FEBBBA"/>
					<stop  offset="1" style="stop-color:#FF928E"/>
				</linearGradient>
				<path style="fill:url(#SVGID_00000168079582036918070850000009338966649897457809_);" d="M1526.329,2481.659
					c-29.099-65.299-56.569-162.883-24.567-260.414l18.541-18.54c0,0,0.008,152.759,38.015,228.619
					C1547.693,2448.125,1537.069,2464.932,1526.329,2481.659z"/>
				
					<linearGradient id="SVGID_00000066475085906313675370000006495955621305282447_" gradientUnits="userSpaceOnUse" x1="4994.6382" y1="-5249.1426" x2="4777.7749" y2="-4926.3696" gradientTransform="matrix(-1 0 0 1 1408.8547 0)">
					<stop  offset="0" style="stop-color:#FF928E"/>
					<stop  offset="1" style="stop-color:#FE7062"/>
				</linearGradient>
				<path style="fill:url(#SVGID_00000066475085906313675370000006495955621305282447_);" d="M1699.685,2458.29h-91.388
					c-9.18,0-17.992-3.52-24.642-9.847c-8.519-8.105-19.474-21.843-27.235-43.466c-1.177-3.279-4.699-5.083-8.039-4.093
					c-11.759,3.487-37.489,13.463-50.985,36.696c-1.263,2.174-1.244,4.87,0.12,6.981l57.004,88.214l-5.617,217.613
					c0,0,143.24,22.469,162.901,0l19.661-199.413c0,0,70.216-42.13,89.876-109.537l-58.981-33.704c0,0-6.869,0.282-12.733,16.078
					C1741.905,2444.614,1721.873,2458.29,1699.685,2458.29z"/>
				
					<linearGradient id="SVGID_00000108301288736150747960000002769203919549902241_" gradientUnits="userSpaceOnUse" x1="1728.4807" y1="2245.8423" x2="1620.8843" y2="2494.6594">
					<stop  offset="0" style="stop-color:#FEBBBA"/>
					<stop  offset="1" style="stop-color:#FF928E"/>
				</linearGradient>
				<path style="fill:url(#SVGID_00000108301288736150747960000002769203919549902241_);" d="M1621.439,2391.809l-2.108,70.531
					c-0.135,4.517,2.688,8.592,6.978,10.012c8.782,2.907,24.677,6.509,42.457,2.67c5.303-1.145,8.69-6.383,7.76-11.728
					l-9.663-55.559L1621.439,2391.809z"/>
				<g>
					
						<linearGradient id="SVGID_00000126322100314805197190000004620911707050107546_" gradientUnits="userSpaceOnUse" x1="1728.5582" y1="5631.8569" x2="1787.9608" y2="5783.1655" gradientTransform="matrix(0.7818 -0.6235 0.6235 0.7818 -2877.1858 -760.9076)">
						<stop  offset="0" style="stop-color:#FEBBBA"/>
						<stop  offset="1" style="stop-color:#FF928E"/>
					</linearGradient>
					<path style="fill:url(#SVGID_00000126322100314805197190000004620911707050107546_);" d="M1669.778,2327.23
						c0.636,0.797,21.958,58.816,31.338,84.383c2.374,6.472-1.155,13.599-7.735,15.655l-20.622,3.764
						c-13.67,2.495-27.25-4.792-32.729-17.562l-24.834-28.933c-13.499-15.727-8.86-40.05,9.604-49.466
						C1642.986,2325.798,1662.928,2318.64,1669.778,2327.23z"/>
					
						<linearGradient id="SVGID_00000116237266203364341970000012454695896342283440_" gradientUnits="userSpaceOnUse" x1="2181.8701" y1="4569.9268" x2="2238.3826" y2="4442.7739" gradientTransform="matrix(1 0 0 1 -1541.4904 0)">
						<stop  offset="0" style="stop-color:#09005D"/>
						<stop  offset="1" style="stop-color:#1A0F91"/>
					</linearGradient>
					<path style="fill:url(#SVGID_00000116237266203364341970000012454695896342283440_);" d="M1628.736,2391.025l5.903-2.951
						c0,0-23.611-38.367,2.951-41.318c26.562-2.951,50.172-8.854,50.172-23.611c0-14.757,0-41.319-32.464-29.514
						c-32.465,11.805-29.513,32.465-47.221,35.416c-17.708,2.951-32.465,5.903-26.562,23.611
						c5.903,17.708,17.708,29.513,11.805,35.416C1587.417,2393.977,1613.979,2423.49,1628.736,2391.025z"/>
					
						<linearGradient id="SVGID_00000153669191951751585480000012189492143348571544_" gradientUnits="userSpaceOnUse" x1="1697.8892" y1="5643.8975" x2="1757.2916" y2="5795.2056" gradientTransform="matrix(0.7818 -0.6235 0.6235 0.7818 -2877.1858 -760.9076)">
						<stop  offset="0" style="stop-color:#FEBBBA"/>
						<stop  offset="1" style="stop-color:#FF928E"/>
					</linearGradient>
					<path style="fill:url(#SVGID_00000153669191951751585480000012189492143348571544_);" d="M1635.037,2402.52
						c0,0-4.907-25.947-15.858-26.59c-10.951-0.644-21.013,8.915-9.34,22.956C1624.359,2416.351,1635.037,2402.52,1635.037,2402.52z
						"/>
				</g>
				
					<linearGradient id="SVGID_00000021111876642868491790000016067512623786232727_" gradientUnits="userSpaceOnUse" x1="-108.9777" y1="2492.5693" x2="-117.9441" y2="2851.2249" gradientTransform="matrix(-1 0 0 1 1408.8547 0)">
					<stop  offset="0" style="stop-color:#FEBBBA"/>
					<stop  offset="1" style="stop-color:#FF928E"/>
				</linearGradient>
				<path style="fill:url(#SVGID_00000021111876642868491790000016067512623786232727_);" d="M1524.75,2173.512l6.997,10.496
					c1.926,2.889,2.427,6.483,1.338,9.779c-2.842,8.604-9.262,25.528-18.308,34.573c-12.466,12.465-24.931-17.452-27.424-27.424
					c-2.493-9.972,14.958-34.904,19.945-39.89C1512.284,2156.061,1532.229,2158.554,1524.75,2173.512z"/>
			</g>
			
				<linearGradient id="SVGID_00000116207781069773633860000010905514647464264609_" gradientUnits="userSpaceOnUse" x1="1671.7894" y1="2315.3398" x2="1680.657" y2="2315.3398">
				<stop  offset="0" style="stop-color:#DAE3FE"/>
				<stop  offset="1" style="stop-color:#E9EFFD"/>
			</linearGradient>
			<path style="fill:url(#SVGID_00000116207781069773633860000010905514647464264609_);" d="M1672.628,2328.101
				c-0.391,0-0.739-0.273-0.821-0.67c-0.095-0.453,0.197-0.896,0.65-0.995c0.138-0.03,3.382-0.755,5.241-4.312
				c2.151-4.117,1.53-10.471-1.793-18.381c-0.181-0.427,0.02-0.919,0.45-1.1c0.427-0.177,0.923,0.026,1.1,0.45
				c3.586,8.531,4.164,15.206,1.714,19.849c-2.246,4.255-6.206,5.106-6.373,5.142
				C1672.74,2328.094,1672.684,2328.101,1672.628,2328.101z"/>
		</g>
	</g>
</g>
</svg>
